<svg width="1280" height="720" xmlns="http://www.w3.org/2000/svg" xmlns:xlink="http://www.w3.org/1999/xlink" overflow="hidden"><defs><filter id="fx0" x="-10%" y="-10%" width="120%" height="120%" filterUnits="userSpaceOnUse" primitiveUnits="userSpaceOnUse"><feComponentTransfer color-interpolation-filters="sRGB"><feFuncR type="discrete" tableValues="0 0"/><feFuncG type="discrete" tableValues="0 0"/><feFuncB type="discrete" tableValues="0 0"/><feFuncA type="linear" slope="0.4" intercept="0"/></feComponentTransfer><feGaussianBlur stdDeviation="1.77778 1.77778"/></filter><filter id="fx1" x="-10%" y="-10%" width="120%" height="120%" filterUnits="userSpaceOnUse" primitiveUnits="userSpaceOnUse"><feComponentTransfer color-interpolation-filters="sRGB"><feFuncR type="discrete" tableValues="0 0"/><feFuncG type="discrete" tableValues="0 0"/><feFuncB type="discrete" tableValues="0 0"/><feFuncA type="linear" slope="0.4" intercept="0"/></feComponentTransfer><feGaussianBlur stdDeviation="1.77778 1.77778"/></filter><clipPath id="clip2"><rect x="0" y="0" width="1280" height="720"/></clipPath><clipPath id="clip3"><rect x="27" y="17" width="260" height="56"/></clipPath></defs><g clip-path="url(#clip2)"><rect x="0" y="0" width="1280" height="720" fill="#F0F0F0"/><g filter="url(#fx0)" transform="translate(-4 14)"><g><rect x="6.82843" y="6.82843" width="468" height="60" fill="#548235"/></g></g><g clip-path="url(#clip3)" filter="url(#fx1)" transform="translate(79 6)"><g><path d="M3.88428 1.67969 3.88428-27.9038 19.2744-27.9038 19.2744-25.5522 6.69775-25.5522 6.69775-14.6973 17.9937-14.6973 17.9937-12.3667 6.69775-12.3667 6.69775-0.671875 20.1353-0.671875 20.1353 1.67969ZM42.916 1.67969 33.8877-11.8838 24.8384 1.67969 21.731 1.67969 32.313-13.8784 22.5918-27.9038 25.6992-27.9038 33.9507-15.6841 42.0552-27.9038 45.1836-27.9038 35.6724-13.8784 46.0444 1.67969ZM58.5964-25.4893 58.5964 1.67969 55.8039 1.67969 55.8039-25.4893 46.5866-25.4893 46.5866-27.9038 68.0026-27.9038 68.0026-25.4893ZM72.2386 1.67969 72.2386-27.9038 75.0521-27.9038 75.0521 1.67969Z" fill="#FFFFFF" transform="translate(32.9939 59)"/><path d="M1.46973-2.41455C6.25684-3.53434 10.1971-6.29883 13.2905-10.708L6.19385-10.708C5.27002-10.68 4.10824-10.596 2.7085-10.4561L2.7085-13.1226C4.10824-12.9686 5.27002-12.8776 6.19385-12.8496L11.5688-12.8496 11.5688-25.9722 8.37744-25.9722C7.29964-25.9442 6.12386-25.8602 4.8501-25.7202L4.8501-28.3867C6.34782-28.2327 7.5236-28.1418 8.37744-28.1138L11.5688-28.1138 11.5688-29.4155C11.5409-30.5353 11.4569-31.8791 11.3169-33.4468L14.4453-33.0269C14.7673-32.9989 14.9422-32.9324 14.9702-32.8274 14.9982-32.7224 14.8932-32.5579 14.6553-32.334 14.1794-31.8721 13.9554-30.7803 13.9834-29.0586L13.9834-28.1138 28.4707-28.1138 28.4707-29.6255C28.4707-30.4933 28.3797-31.8581 28.1978-33.7197L31.3472-33.2368C31.6971-33.2088 31.8721-33.1388 31.8721-33.0269 31.9001-32.9429 31.7811-32.7679 31.5151-32.502 31.0812-32.082 30.8643-31.0112 30.8643-29.2896L30.8643-28.1138 33.9297-28.1138C34.6995-28.1138 35.8473-28.2048 37.373-28.3867L37.373-25.7202C35.7633-25.8882 34.6156-25.9722 33.9297-25.9722L30.8643-25.9722 30.8643-12.8496 36.3862-12.8496C37.0441-12.8496 38.1849-12.9406 39.8086-13.1226L39.8086-10.4561C38.3529-10.624 37.2121-10.708 36.3862-10.708L30.0244-10.708C32.7679-6.95671 36.5892-4.59115 41.4883-3.61133 40.5225-2.89746 39.7106-1.95264 39.0527-0.776855 33.1458-3.73031 29.1706-7.04069 27.127-10.708L16.293-10.708C13.0036-5.97689 8.92334-2.32357 4.05225 0.251953 3.35238-0.839844 2.49154-1.72868 1.46973-2.41455ZM28.4707-18.3086 28.4707-21.1641 13.9834-21.1641 13.9834-18.3086ZM13.9834-25.9722 13.9834-23.2217 28.4707-23.2217 28.4707-25.9722ZM13.9834-16.251 13.9834-12.8496 28.4707-12.8496 28.4707-16.251ZM10.75 3.19141 20.5972 3.19141 20.5972-1.80566 14.6133-1.80566C13.7874-1.80566 12.6117-1.72168 11.0859-1.55371L11.0859-4.22021C12.4997-4.06624 13.6755-3.97526 14.6133-3.94727L20.5972-3.94727 20.5972-5.375C20.5972-6.35482 20.5132-7.70557 20.3452-9.42725L23.4316-8.98633C23.7536-8.95833 23.9285-8.90234 23.9565-8.81836 23.9845-8.73438 23.8936-8.5734 23.6836-8.33545 23.2077-7.94352 22.9837-6.84473 23.0117-5.03906L23.0117-3.94727 28.8906-3.94727C29.7585-3.97526 30.9062-4.06624 32.334-4.22021L32.334-1.55371C30.9062-1.69368 29.7585-1.77767 28.8906-1.80566L23.0117-1.80566 23.0117 3.19141 33.3208 3.19141C34.2166 3.14941 35.3784 3.05843 36.8062 2.91846L36.8062 5.58496C35.2944 5.41699 34.1326 5.33301 33.3208 5.33301L10.75 5.33301C9.95215 5.361 8.77637 5.44499 7.22266 5.58496L7.22266 2.91846C8.6224 3.10042 9.79818 3.19141 10.75 3.19141ZM43.9894-1.23877C50.3582-4.37419 55.9922-11.3029 60.8913-22.0249L50.4562-22.0249C48.9865-22.0249 47.8387-21.9339 47.0129-21.752L47.0129-24.4185C47.7547-24.2505 48.9025-24.1665 50.4562-24.1665L63.1379-24.1665 63.1379-30.2764C63.1379-31.7601 63.0539-32.8449 62.8859-33.5308L66.1403-33.1108C66.5742-33.0828 66.7772-33.0269 66.7492-32.9429 66.7772-32.8589 66.5602-32.6839 66.0983-32.418 65.7624-32.026 65.5804-31.1512 65.5524-29.7935L65.5524-24.1665 78.318-24.1665C79.8018-24.1665 80.9775-24.2505 81.8454-24.4185L81.8454-21.752C80.8096-21.9339 79.6618-22.0249 78.402-22.0249L67.82-22.0249C71.4313-12.0728 76.8763-5.31901 84.155-1.76367 82.9232-1.13379 81.8384-0.356934 80.9006 0.566895 74.4198-4.02425 69.3037-11.3099 65.5524-21.29L65.5524-4.22021 70.6125-4.22021C72.1382-4.22021 73.3-4.3042 74.0978-4.47217L74.0978-1.80566C73.3-1.97363 72.1522-2.05762 70.6545-2.05762L65.5524-2.05762 65.5524 3.2334C65.5524 3.31738 65.5524 3.45736 65.5524 3.65332 65.5104 5.23503 65.5664 6.38281 65.7204 7.09668L62.8859 7.09668C63.0539 6.11686 63.1379 4.8431 63.1379 3.27539L63.1379-2.05762 57.2799-2.05762C55.9362-2.05762 54.7744-1.97363 53.7946-1.80566L53.7946-4.47217C54.5225-4.3042 55.6842-4.22021 57.2799-4.22021L63.1379-4.22021 63.1379-20.5552C58.8687-11.2329 53.4237-4.05225 46.8029 0.986816 46.229 0.0769857 45.2912-0.664876 43.9894-1.23877ZM102.109-3.00244C101.843-2.1486 101.738-1.20378 101.794-0.167969 95.9574 1.55371 91.6182 3.10042 88.7767 4.47217 88.4268 3.29639 88.0208 2.19059 87.5589 1.15479 91.4082 0.608887 96.2583-0.776856 102.109-3.00244ZM94.4456-33.1948 97.5951-31.7251C98.071-31.5291 98.2949-31.3472 98.2669-31.1792 98.2669-31.0112 98.015-30.8643 97.5111-30.7383 96.8812-30.5983 96.3213-30.0384 95.8314-29.0586 94.3896-26.0212 92.724-22.9977 90.8343-19.9883 91.4362-19.9883 92.395-20.0163 93.7108-20.0723 95.0965-20.1423 96.1043-20.1772 96.7342-20.1772 97.994-22.4028 98.9668-24.5234 99.6527-26.5391L102.487-24.8174C102.921-24.5514 103.138-24.3765 103.138-24.2925 103.166-24.1805 102.963-24.0405 102.529-23.8726 101.899-23.5506 101.325-22.9207 100.807-21.9829 98.7778-18.1896 96.3003-14.0604 93.3748-9.59521 96.5522-9.84717 99.5197-10.3441 102.277-11.0859 102.011-10.2881 101.878-9.37126 101.878-8.33545 97.2171-7.73356 93.3048-7.07568 90.1414-6.36182 89.9455-7.5376 89.6305-8.51042 89.1966-9.28027 90.2324-9.51823 91.1213-10.1971 91.8631-11.3169 93.7248-14.0324 95.0895-16.293 95.9574-18.0986 92.9199-17.9867 90.4984-17.7557 88.6927-17.4058 88.6087-17.6717 88.2658-18.5465 87.6639-20.0303 88.4897-20.5482 89.0776-21.1361 89.4276-21.7939 91.4852-25.3213 93.1579-29.1216 94.4456-33.1948ZM107.316-25.4473 113.027-25.4473 113.027-29.2896C113.027-30.4933 112.943-31.8091 112.775-33.2368L116.261-32.8169C116.82-32.7889 117.1-32.6839 117.1-32.502 117.17-32.362 116.96-32.117 116.471-31.7671 115.785-31.2912 115.442-30.4513 115.442-29.2476L115.442-25.4473 122.58-25.4473C123.784-25.4473 124.96-25.5382 126.108-25.7202L126.108-23.0537C124.96-23.2217 123.784-23.3057 122.58-23.3057L115.442-23.3057 115.442-16.4189 120.46-16.4189C121.692-16.4189 122.867-16.5099 123.987-16.6919L123.987-14.0254C122.755-14.1934 121.58-14.2773 120.46-14.2773L108.114-14.2773C106.91-14.2773 105.742-14.1934 104.608-14.0254L104.608-16.6919C105.714-16.5099 106.882-16.4189 108.114-16.4189L113.027-16.4189 113.027-23.3057 107.316-23.3057C106.112-23.3057 104.951-23.2217 103.831-23.0537L103.831-25.7202C104.853-25.5382 106.014-25.4473 107.316-25.4473ZM105.406-9.6792C106.189-9.51123 107.379-9.42725 108.975-9.42725L119.683-9.42725C121.125-9.42725 122.314-9.51123 123.252-9.6792 123.084-8.6154 123-7.5236 123-6.40381L123 2.49854C123 3.70231 123.098 4.80111 123.294 5.79492L120.334 5.79492C120.558 4.88509 120.642 3.95426 120.586 3.00244L108.072 3.00244C108.072 4.3042 108.135 5.29801 108.261 5.98389L105.448 5.98389C105.602 4.86409 105.679 3.7863 105.679 2.75049L105.679-6.23584C105.679-7.66357 105.588-8.81136 105.406-9.6792ZM108.072 0.944824 120.586 0.944824 120.586-7.26465 108.072-7.26465ZM144.986-17.9727C148.765-21.64 151.404-26.756 152.901-33.3208L155.82-32.208C156.31-32.04 156.555-31.8931 156.555-31.7671 156.583-31.6831 156.38-31.5711 155.946-31.4312 155.484-31.3192 155.169-30.9902 155.001-30.4443 154.399-28.6667 153.657-26.875 152.775-25.0693L164.428-25.0693C165.8-25.0973 166.976-25.1813 167.956-25.3213 167.886-24.6634 167.837-23.6626 167.809-22.3188 167.781-21.8569 167.767-21.514 167.767-21.29 167.767-20.7721 167.753-19.9813 167.725-18.9175 167.613-11.1209 167.445-5.20003 167.221-1.15479 167.137 1.47673 166.031 3.29639 163.903 4.3042 162.588 4.96208 160.208 5.375 156.765 5.54297 156.709 4.36719 156.352 3.12142 155.694 1.80566 156.702 2.1276 157.576 2.31657 158.318 2.37256 158.486 2.38656 158.689 2.39355 158.927 2.39355 159.543 2.39355 160.299 2.33756 161.195 2.22559 163.602 2.00163 164.806 0.356933 164.806-2.7085 164.834-3.85628 164.89-5.82292 164.974-8.6084 165.156-15.3691 165.261-20.1423 165.289-22.9277L151.642-22.9277C150.41-20.5762 149.192-18.4976 147.988-16.6919 147.218-17.3498 146.218-17.7767 144.986-17.9727ZM153.405-19.8623 156.513-18.9595C156.877-18.8475 157.045-18.7495 157.017-18.6655 157.017-18.6095 156.807-18.4766 156.387-18.2666 156.037-18.0986 155.694-17.5877 155.358-16.7339 153.86-12.9686 152.02-9.35726 149.836-5.8999 151.306-6.01188 153.902-6.31283 157.625-6.80273 158.311-6.88672 158.815-6.94271 159.137-6.9707 158.423-8.42643 157.402-10.2181 156.072-12.3457L158.402-13.5005C160.432-9.86117 162.077-6.55078 163.336-3.56934L161.027-2.41455C160.705-3.50635 160.32-4.45117 159.872-5.24902 155.225-4.64714 152.24-4.16772 150.917-3.81079 149.594-3.45386 148.464-3.07243 147.526-2.6665 147.204-3.64632 146.771-4.63314 146.225-5.62695 147.064-6.00488 147.638-6.39681 147.946-6.80273 150.466-10.526 152.285-14.8792 153.405-19.8623ZM137.595-20.8071 134.488-20.8071C132.948-20.8071 131.8-20.7231 131.044-20.5552L131.044-23.2217C131.996-23.0537 133.144-22.9697 134.488-22.9697L138.33-22.9697 138.33-29.8774C138.33-31.3472 138.239-32.439 138.057-33.1528L141.333-32.7329C141.64-32.6909 141.794-32.6139 141.794-32.502 141.822-32.418 141.71-32.306 141.458-32.166 140.969-31.8721 140.724-30.9132 140.724-29.2896L140.724-22.9697 142.109-22.9697C143.537-22.9697 144.713-23.0537 145.637-23.2217L145.637-20.5552C144.657-20.7231 143.509-20.8071 142.193-20.8071L140.724-20.8071 140.724-18.1406C143.313-16.027 145.294-14.2074 146.666-12.6816L144.86-10.582C143.656-12.3597 142.277-13.8784 140.724-15.1382L140.724 2.49854C140.724 4.03825 140.808 5.31201 140.976 6.31982L138.057 6.31982C138.239 5.28402 138.33 4.02425 138.33 2.54053L138.33-16.251C136.636-12.0658 134.754-8.52441 132.682-5.62695 131.884-6.14486 130.939-6.59277 129.848-6.9707 133.151-10.1201 135.734-14.7323 137.595-20.8071Z" fill="#FFFFFF" transform="translate(111.827 59)"/></g></g><rect x="0" y="18" width="468" height="60" fill="#548235"/><text fill="#FFFFFF" font-family="DengXian,DengXian_MSFontService,sans-serif" font-weight="400" font-size="43" transform="translate(109.165 63)">EXTI</text><text fill="#FFFFFF" font-family="DengXian,DengXian_MSFontService,sans-serif" font-weight="400" font-size="43" transform="translate(187.999 63)">基本结构</text><rect x="128.5" y="108.5" width="1025" height="559" stroke="#2F528F" stroke-width="1.33333" stroke-miterlimit="8" fill="#4472C4"/><rect x="981.5" y="143.5" width="126" height="437" stroke="#2E75B6" stroke-width="1.33333" stroke-miterlimit="8" fill="#009999"/><text fill="#FFFFFF" font-family="DengXian,DengXian_MSFontService,sans-serif" font-weight="400" font-size="24" transform="translate(1017.28 369)">NVIC</text><rect x="652.5" y="143.5" width="195" height="506" stroke="#548235" stroke-width="1.33333" stroke-miterlimit="8" fill="#ED7D31"/><text fill="#FFFFFF" font-family="DengXian,DengXian_MSFontService,sans-serif" font-weight="400" font-size="24" transform="translate(727.639 389)">EXTI</text><text fill="#FFFFFF" font-family="DengXian,DengXian_MSFontService,sans-serif" font-weight="400" font-size="24" transform="translate(665.806 418)">边沿检测及控制</text><text font-family="DengXian,DengXian_MSFontService,sans-serif" font-weight="400" font-size="32" transform="matrix(-1.83697e-16 -1 1 -1.83697e-16 232.195 527)">……</text><rect x="165.5" y="238.5" width="113" height="57" stroke="#548235" stroke-width="1.33333" stroke-miterlimit="8" fill="#70AD47"/><text fill="#FFFFFF" font-family="DengXian,DengXian_MSFontService,sans-serif" font-weight="400" font-size="24" transform="translate(187.213 274)">GPIOA</text><rect x="165.5" y="321.5" width="113" height="58" stroke="#548235" stroke-width="1.33333" stroke-miterlimit="8" fill="#70AD47"/><text fill="#FFFFFF" font-family="DengXian,DengXian_MSFontService,sans-serif" font-weight="400" font-size="24" transform="translate(188.213 357)">GPIOB</text><rect x="165.5" y="404.5" width="113" height="58" stroke="#548235" stroke-width="1.33333" stroke-miterlimit="8" fill="#70AD47"/><text fill="#FFFFFF" font-family="DengXian,DengXian_MSFontService,sans-serif" font-weight="400" font-size="24" transform="translate(187.463 441)">GPIOC</text><path d="M278.506 266 346.597 266.272 346.585 269.272 278.494 269ZM345.109 263.266 354.091 267.801 345.073 272.266Z"/><path d="M278.5 351 346.591 351 346.591 354 278.5 354ZM345.091 348 354.091 352.5 345.091 357Z"/><path d="M278.5 434 346.591 434 346.591 437 278.5 437ZM345.091 431 354.091 435.5 345.091 440Z"/><text font-family="DengXian,DengXian_MSFontService,sans-serif" font-weight="400" font-size="24" transform="translate(301.161 247)">16</text><path d="M0 0 18.8976 18.8976" stroke="#000000" stroke-width="2" stroke-miterlimit="8" fill="none" fill-rule="evenodd" transform="matrix(1 0 0 -1 304 276.898)"/><text font-family="DengXian,DengXian_MSFontService,sans-serif" font-weight="400" font-size="24" transform="translate(301.161 331)">16</text><path d="M0 0 18.8976 18.8976" stroke="#000000" stroke-width="2" stroke-miterlimit="8" fill="none" fill-rule="evenodd" transform="matrix(1 0 0 -1 304 359.898)"/><text font-family="DengXian,DengXian_MSFontService,sans-serif" font-weight="400" font-size="24" transform="translate(301.161 414)">16</text><path d="M0 0 18.8976 18.8976" stroke="#000000" stroke-width="2" stroke-miterlimit="8" fill="none" fill-rule="evenodd" transform="matrix(1 0 0 -1 304 443.898)"/><rect x="353.5" y="143.5" width="168" height="506" stroke="#548235" stroke-width="1.33333" stroke-miterlimit="8" fill="#FF6565"/><text fill="#FFFFFF" font-family="DengXian,DengXian_MSFontService,sans-serif" font-weight="400" font-size="24" transform="translate(411.54 389)">AFIO</text><text fill="#FFFFFF" font-family="DengXian,DengXian_MSFontService,sans-serif" font-weight="400" font-size="24" transform="translate(365.04 418)">中断引脚选择</text><path d="M521.5 264 645.345 264 645.345 267 521.5 267ZM643.845 261 652.845 265.5 643.845 270Z"/><text font-family="DengXian,DengXian_MSFontService,sans-serif" font-weight="400" font-size="24" transform="translate(571.72 244)">16</text><path d="M0 0 18.8976 18.8976" stroke="#000000" stroke-width="2" stroke-miterlimit="8" fill="none" fill-rule="evenodd" transform="matrix(1 0 0 -1 575 273.898)"/><rect x="540.5" y="431.5" width="74" height="39" stroke="#548235" stroke-width="1.33333" stroke-miterlimit="8" fill="#70AD47"/><text fill="#FFFFFF" font-family="DengXian,DengXian_MSFontService,sans-serif" font-weight="400" font-size="24" transform="translate(554.739 458)">PVD</text><rect x="540.5" y="483.5" width="74" height="39" stroke="#548235" stroke-width="1.33333" stroke-miterlimit="8" fill="#70AD47"/><text fill="#FFFFFF" font-family="DengXian,DengXian_MSFontService,sans-serif" font-weight="400" font-size="24" transform="translate(556.323 510)">RTC</text><rect x="540.5" y="535.5" width="74" height="39" stroke="#548235" stroke-width="1.33333" stroke-miterlimit="8" fill="#70AD47"/><text fill="#FFFFFF" font-family="DengXian,DengXian_MSFontService,sans-serif" font-weight="400" font-size="24" transform="translate(556.073 562)">USB</text><path d="M615.512 452 645.808 452.242 645.784 455.242 615.488 455ZM644.331 449.23 653.295 453.801 644.26 458.23Z"/><path d="M614.5 502 644.795 502 644.795 505 614.5 505ZM643.295 499 652.295 503.5 643.295 508Z"/><path d="M615.5 554 645.795 554 645.795 557 615.5 557ZM644.295 551 653.295 555.5 644.295 560Z"/><rect x="540.5" y="587.5" width="74" height="39" stroke="#548235" stroke-width="1.33333" stroke-miterlimit="8" fill="#70AD47"/><text fill="#FFFFFF" font-family="DengXian,DengXian_MSFontService,sans-serif" font-weight="400" font-size="24" transform="translate(556.323 614)">ETH</text><path d="M615.5 606 645.795 606 645.795 609 615.5 609ZM644.295 603 653.295 607.5 644.295 612Z"/><path d="M849.5 180 973.345 180 973.345 183 849.5 183ZM971.845 177 980.845 181.5 971.845 186Z"/><text font-family="DengXian,DengXian_MSFontService,sans-serif" font-weight="400" font-size="24" transform="translate(884.313 170)">EXTI0</text><path d="M849.5 218 973.345 218 973.345 221 849.5 221ZM971.845 215 980.845 219.5 971.845 224Z"/><text font-family="DengXian,DengXian_MSFontService,sans-serif" font-weight="400" font-size="24" transform="translate(884.313 208)">EXTI1</text><path d="M849.5 256 973.345 256 973.345 259 849.5 259ZM971.845 253 980.845 257.5 971.845 262Z"/><text font-family="DengXian,DengXian_MSFontService,sans-serif" font-weight="400" font-size="24" transform="translate(884.313 246)">EXTI2</text><path d="M849.5 294 973.345 294 973.345 297 849.5 297ZM971.845 291 980.845 295.5 971.845 300Z"/><text font-family="DengXian,DengXian_MSFontService,sans-serif" font-weight="400" font-size="24" transform="translate(884.313 284)">EXTI3</text><path d="M849.5 332 973.345 332 973.345 335 849.5 335ZM971.845 329 980.845 333.5 971.845 338Z"/><text font-family="DengXian,DengXian_MSFontService,sans-serif" font-weight="400" font-size="24" transform="translate(884.313 322)">EXTI4</text><path d="M849.5 370 973.345 370 973.345 373 849.5 373ZM971.845 367 980.845 371.5 971.845 376Z"/><text font-family="DengXian,DengXian_MSFontService,sans-serif" font-weight="400" font-size="24" transform="translate(872.98 360)">EXTI9_5</text><path d="M849.5 408 973.345 408 973.345 411 849.5 411ZM971.845 405 980.845 409.5 971.845 414Z"/><text font-family="DengXian,DengXian_MSFontService,sans-serif" font-weight="400" font-size="24" transform="translate(860.313 398)">EXTI15_10</text><path d="M849.5 446 973.345 446 973.345 449 849.5 449ZM971.845 443 980.845 447.5 971.845 452Z"/><text font-family="DengXian,DengXian_MSFontService,sans-serif" font-weight="400" font-size="24" transform="translate(890.646 436)">PVD</text><path d="M849.5 484 973.345 484 973.345 487 849.5 487ZM971.845 481 980.845 485.5 971.845 490Z"/><text font-family="DengXian,DengXian_MSFontService,sans-serif" font-weight="400" font-size="24" transform="translate(892.23 474)">RTC</text><path d="M849.5 522 973.345 522 973.345 525 849.5 525ZM971.845 519 980.845 523.5 971.845 528Z"/><text font-family="DengXian,DengXian_MSFontService,sans-serif" font-weight="400" font-size="24" transform="translate(891.98 512)">USB</text><path d="M849.5 561 973.345 561 973.345 564 849.5 564ZM971.845 558 980.845 562.5 971.845 567Z"/><text font-family="DengXian,DengXian_MSFontService,sans-serif" font-weight="400" font-size="24" transform="translate(892.23 550)">ETH</text><path d="M849.5 620 973.345 620 973.345 623 849.5 623ZM971.845 617 980.845 621.5 971.845 626Z"/><text font-family="DengXian,DengXian_MSFontService,sans-serif" font-weight="400" font-size="24" transform="translate(900.146 603)">20</text><rect x="981.5" y="593.5" width="126" height="56" stroke="#548235" stroke-width="1.33333" stroke-miterlimit="8" fill="#70AD47"/><text fill="#FFFFFF" font-family="DengXian,DengXian_MSFontService,sans-serif" font-weight="400" font-size="24" transform="translate(995.784 628)">其它外设</text><path d="M0 0 18.8976 18.8976" stroke="#000000" stroke-width="2" stroke-miterlimit="8" fill="none" fill-rule="evenodd" transform="matrix(1 0 0 -1 905 629.898)"/></g></svg>